<svg id="Layer_1" enable-background="new 0 0 512 512" viewBox="0 0 512 512" xmlns="http://www.w3.org/2000/svg" xmlns:xlink="http://www.w3.org/1999/xlink"><linearGradient id="SVGID_1_" gradientUnits="userSpaceOnUse" x1="91.621" x2="420.072" y1="456.806" y2="128.355"><stop offset="0" stop-color="#fc4422"/><stop offset="1" stop-color="#ffbb32"/></linearGradient><path d="m162.219 283.971c6.194-5.87 10.068-14.163 10.068-23.349 0-17.747-14.438-32.186-32.185-32.186s-32.186 14.438-32.186 32.186c0 9.186 3.875 17.48 10.068 23.349-19.763 4.586-34.539 22.326-34.539 43.464v39.002c0 14.519 6.952 27.889 18.734 36.297v51.49c0 17.521 14.254 31.776 31.775 31.776h12.293c17.521 0 31.776-14.254 31.776-31.776v-51.49c11.781-8.409 18.733-21.779 18.733-36.297v-39.002c.002-21.138-14.774-38.877-34.537-43.464zm-22.116-45.534c12.233 0 22.185 9.953 22.185 22.186s-9.952 22.185-22.185 22.185-22.186-9.952-22.186-22.185 9.953-22.186 22.186-22.186zm46.655 128c0 11.989-6.125 22.976-16.384 29.388-1.461.914-2.35 2.516-2.35 4.24v54.159c0 12.007-9.769 21.776-21.776 21.776h-12.293c-12.007 0-21.775-9.769-21.775-21.776v-54.159c0-1.724-.888-3.326-2.35-4.24-10.259-6.413-16.384-17.399-16.384-29.388v-39.002c0-19.094 15.534-34.628 34.627-34.628h24.057c19.094 0 34.627 15.534 34.627 34.628v39.002zm233.521 6.489v-53.523c0-16.302-10.717-30.144-25.474-34.862 6.55-5.896 10.676-14.433 10.676-23.918 0-17.747-14.438-32.186-32.186-32.186s-32.186 14.438-32.186 32.186c0 9.485 4.127 18.023 10.676 23.918-14.757 4.719-25.474 18.56-25.474 34.862v53.523l-11.585 16.979c-3.85 5.643-4.586 11.74-2.075 17.169 2.729 5.896 8.459 9.558 14.957 9.558h12.504v42.241c0 14.958 12.169 27.127 27.127 27.127h12.11c14.958 0 27.126-12.169 27.126-27.127v-42.241h12.505c6.497 0 12.228-3.663 14.957-9.559 2.512-5.43 1.775-11.528-2.075-17.169zm-46.983-134.489c12.233 0 22.186 9.953 22.186 22.186s-9.953 22.185-22.186 22.185-22.186-9.952-22.186-22.185 9.953-22.186 22.186-22.186zm51.568 164.437c-1.105 2.389-3.249 3.758-5.881 3.758h-17.505c-2.761 0-5 2.239-5 5v47.241c0 9.444-7.683 17.127-17.126 17.127h-12.11c-9.444 0-17.127-7.683-17.127-17.127v-47.241c0-2.761-2.239-5-5-5h-17.504c-2.632 0-4.776-1.37-5.881-3.758-1.004-2.169-.58-4.637 1.26-7.333l12.455-18.253c.566-.831.87-1.813.87-2.818v-55.067c0-14.665 11.931-26.595 26.595-26.595h20.777c14.665 0 26.595 11.931 26.595 26.595v55.067c0 1.005.303 1.988.87 2.818l12.455 18.253c1.837 2.695 2.261 5.163 1.257 7.333zm-146.818-81.599c5.374-5.538 8.693-13.081 8.693-21.39 0-16.949-13.79-30.739-30.739-30.739s-30.739 13.79-30.739 30.739c0 8.308 3.319 15.852 8.693 21.39-15.349 3.062-26.952 16.635-26.952 32.87v39.438c0 11.867 6.373 20.167 18.059 23.718v45.902c0 12.57 10.226 22.796 22.795 22.796h16.288c12.57 0 22.796-10.226 22.796-22.796v-45.903c11.686-3.551 18.059-11.851 18.059-23.718v-39.438c-.001-16.234-11.604-29.806-26.953-32.869zm-22.046-42.128c11.436 0 20.739 9.303 20.739 20.739s-9.303 20.739-20.739 20.739-20.739-9.304-20.739-20.739 9.303-20.739 20.739-20.739zm38.998 114.436c0 5.229-1.453 12.462-14.011 14.898-2.351.456-4.048 2.515-4.048 4.909v49.813c0 7.056-5.74 12.796-12.796 12.796h-16.288c-7.055 0-12.795-5.74-12.795-12.796v-49.813c0-2.394-1.697-4.453-4.048-4.909-12.558-2.437-14.011-9.67-14.011-14.899v-39.438c0-12.969 10.551-23.521 23.521-23.521h30.955c12.97 0 23.521 10.551 23.521 23.521zm144.18-185.675c-4.048-45.585-24.896-87.819-58.705-118.923-32.787-30.164-75.043-47.259-119.473-48.454v-9.531c0-2.761-2.239-5-5-5s-5 2.239-5 5v9.531c-44.43 1.195-86.686 18.29-119.473 48.454-33.808 31.104-54.657 73.338-58.705 118.923-.176 1.987.845 3.888 2.599 4.838 1.753.95 3.903.767 5.472-.465 14.321-11.259 31.545-17.21 49.808-17.21 22.28 0 43.782 9.353 58.994 25.659.946 1.014 2.27 1.589 3.656 1.589s2.71-.576 3.656-1.589c14.069-15.083 33.522-24.199 53.993-25.485v54.616c0 2.761 2.239 5 5 5s5-2.239 5-5v-54.616c20.47 1.286 39.924 10.402 53.994 25.485.946 1.014 2.27 1.589 3.656 1.589s2.71-.576 3.656-1.589c15.211-16.307 36.713-25.659 58.993-25.659 18.263 0 35.486 5.951 49.808 17.21 1.568 1.232 3.72 1.415 5.472.465 1.754-.95 2.775-2.851 2.599-4.838zm-57.879-22.837c-23.307 0-45.854 9.104-62.649 25.139-16.795-16.035-39.344-25.139-62.65-25.139s-45.854 9.104-62.649 25.139c-16.795-16.035-39.344-25.139-62.65-25.139-16.686 0-32.602 4.422-46.622 12.875 12.773-84.818 84.858-147.489 171.921-147.489s159.148 62.671 171.921 147.489c-14.02-8.453-29.936-12.875-46.622-12.875z" fill="url(#SVGID_1_)"/></svg>
