<svg id="Layer_1" enable-background="new 0 0 512 512" viewBox="0 0 512 512" xmlns="http://www.w3.org/2000/svg" xmlns:xlink="http://www.w3.org/1999/xlink"><linearGradient id="SVGID_1_" gradientUnits="userSpaceOnUse" x1="102.131" x2="393.426" y1="429.428" y2="138.133"><stop offset="0" stop-color="#fc4422"/><stop offset="1" stop-color="#ffbb32"/></linearGradient><path d="m482.032 269.803-85.65-18.05v-108.594c0-1.786-.953-3.437-2.5-4.33l-180.192-104.033c-1.547-.893-3.453-.893-5 0l-180.19 104.033c-1.547.894-2.5 2.544-2.5 4.33v208.066c0 1.786.953 3.437 2.5 4.33l180.19 104.033c.773.446 1.637.67 2.5.67s1.727-.224 2.5-.67l91.721-52.955c4.714 10.881 11.281 21.372 19.541 31.033 17.605 20.593 41.454 35.21 65.43 40.104.33.067.665.102 1 .102s.67-.034 1-.102c23.976-4.895 47.824-19.512 65.431-40.104 18.177-21.26 28.187-46.535 28.187-71.167v-91.804c0-2.364-1.655-4.405-3.968-4.892zm-270.842-28.384-65.248-37.671 170.191-98.26 65.249 37.671zm-116.144-55.509 35.896 20.724v78.484l-35.896-20.725zm5-8.66 170.19-98.26 35.896 20.725-170.19 98.26zm111.144-132.35 49.047 28.317-170.19 98.26-49.047-28.318zm-175.19 106.92 49.047 28.317v87.144c0 1.786.953 3.437 2.5 4.33l45.896 26.498c.773.446 1.637.67 2.5.67s1.727-.224 2.5-.67c1.547-.894 2.5-2.544 2.5-4.33v-81.37l65.248 37.671v196.52l-170.191-98.261zm180.19 294.779v-196.52l170.191-98.26v99.933l-85.649 18.05c-2.313.487-3.969 2.528-3.969 4.893v91.804c0 10.223 1.73 20.556 5.047 30.667zm259.81-80.1c0 45.203-38.647 91.332-84.619 101.265-45.971-9.933-84.618-56.062-84.618-101.265v-87.748l84.618-17.833 84.619 17.833zm-101.218 11.921 62.863-62.861c1.951-1.953 5.119-1.953 7.07 0 1.953 1.952 1.953 5.118 0 7.07l-66.398 66.397c-.938.938-2.209 1.465-3.535 1.465s-2.598-.527-3.535-1.465l-33.198-33.199c-1.953-1.952-1.953-5.118 0-7.07 1.951-1.953 5.119-1.953 7.07 0z" fill="url(#SVGID_1_)"/></svg>
