<svg id="Layer_1" enable-background="new 0 0 512 512" viewBox="0 0 512 512" xmlns="http://www.w3.org/2000/svg" xmlns:xlink="http://www.w3.org/1999/xlink"><linearGradient id="SVGID_1_" gradientUnits="userSpaceOnUse" x1="172.393" x2="416.745" y1="345.417" y2="101.066"><stop offset="0" stop-color="#fc4422"/><stop offset="1" stop-color="#ffbb32"/></linearGradient><path d="m482.031 254.034-88.22-18.592c9.488-10.053 16.808-21.415 21.964-33.489h19.147c2.761 0 5-2.239 5-5s-2.239-5-5-5h-15.416c12.683-39.599 3.342-84.783-28.029-116.154-43.52-43.519-113.619-44.65-158.517-3.389-44.897-41.26-114.998-40.129-158.517 3.389-31.371 31.371-40.712 76.555-28.029 116.154h-15.414c-2.761 0-5 2.239-5 5s2.239 5 5 5h19.146c5.572 13.048 13.667 25.267 24.298 35.898l154.981 154.98c.977.976 2.256 1.464 3.536 1.464s2.559-.488 3.536-1.464l53.387-53.387v14.81c0 25.532 10.379 51.732 29.224 73.775 18.254 21.352 42.979 36.507 67.834 41.581.33.067.665.101 1 .101s.67-.034 1-.101c24.855-5.074 49.579-20.229 67.834-41.581 18.845-22.043 29.224-48.243 29.224-73.775v-95.327c0-2.364-1.656-4.405-3.969-4.893zm-431.149-97.21c0-27.936 10.879-54.201 30.633-73.955 40.778-40.778 107.131-40.779 147.91 0 1.953 1.952 5.118 1.952 7.071 0 40.778-40.779 107.13-40.779 147.91 0 29.446 29.446 37.624 72.225 24.545 109.083h-120.439c-2.048 0-3.888 1.249-4.646 3.151l-23.13 58.115-50.905-127.903c-.757-1.902-2.598-3.151-4.646-3.151s-3.889 1.249-4.646 3.151l-26.521 66.637h-117.116c-3.957-11.126-6.02-22.968-6.02-35.128zm182.079 225.401-151.445-151.446c-8.525-8.525-15.393-18.265-20.452-28.827h116.346c2.048 0 3.888-1.249 4.646-3.151l23.13-58.116 50.905 127.903c.757 1.902 2.598 3.151 4.646 3.151s3.888-1.249 4.646-3.151l26.522-66.636h112.898c-4.977 10.429-11.77 20.201-20.395 28.827l-5.285 5.285-85.269 17.97c-2.313.488-3.969 2.529-3.969 4.893v66.375zm243.039-27.971c0 47.037-40.221 95.036-88.058 105.348-47.837-10.312-88.058-58.311-88.058-105.348v-91.271l88.058-18.558 88.058 18.558zm-104.158 12.65 66.537-66.537c1.953-1.952 5.118-1.952 7.071 0 1.953 1.953 1.953 5.119 0 7.071l-70.072 70.072c-.977.976-2.256 1.464-3.536 1.464s-2.559-.488-3.536-1.464l-35.036-35.036c-1.953-1.953-1.953-5.119 0-7.071s5.118-1.952 7.071 0z" fill="url(#SVGID_1_)"/></svg>
