<svg version="1.1" xmlns="http://www.w3.org/2000/svg" style="display: block;" viewBox="0 0 2048 2048" width="512" height="512" preserveAspectRatio="none">
<path transform="translate(0,0)" fill="rgb(247,98,60)" d="M 132.354 347.383 C 130.194 339.005 125.475 327.48 122.263 318.477 C 89.0218 225.329 73.1521 89.7185 156.862 18.258 C 166.585 9.95776 190.873 2.67547 201.187 12.1105 C 210.585 20.707 214.16 40.1498 216.243 52.4315 C 230.793 149.276 265.522 241.162 321.046 321.94 C 424.233 472.056 588.054 563.809 761.308 609.573 C 800.668 619.976 840.999 625.076 880.864 633.291 C 886.447 612.703 890.16 591.809 895.728 571.262 C 910.464 515.548 933.61 462.407 964.369 413.671 C 977.233 393.501 990.581 375.832 1006.47 358.036 C 1008.51 355.742 1015.66 347.617 1016.56 345.599 C 977.261 327.579 956.368 318.938 928.459 283.234 C 906.933 256.067 895.973 221.994 894.629 187.548 C 893.88 168.363 892.279 156.201 909.35 143.927 C 925.584 152.153 931.446 169.372 944.11 182.227 C 999.647 238.601 1080.75 256.415 1157.28 245.478 C 1217.17 236.918 1276.5 219.752 1312.65 282.428 C 1358.89 291.702 1409.71 304.348 1439.8 344.83 C 1450.4 359.096 1458.74 385.155 1456.37 403.312 C 1452.44 424.414 1417.09 398.815 1405.6 395.952 C 1366.18 386.124 1324.26 393.032 1285.56 403.186 C 1271.33 406.944 1257.14 412.794 1243.14 417.218 C 1229.78 423.942 1212.72 430.398 1201.66 440.462 C 1152.4 485.26 1161.49 557.471 1171.35 616.464 C 1172.15 621.219 1173.18 629.405 1174.38 633.461 C 1198.68 627.754 1226.11 624.083 1251.02 618.41 C 1349.17 596.056 1429.09 568.204 1516.39 518.184 C 1663.11 436.212 1771.59 300.576 1818.02 138.894 C 1828.35 102.908 1835.21 68.1133 1842.12 31.3469 C 1843.76 25.2905 1849 12.204 1855.51 10.194 C 1892.09 -1.10129 1925.04 41.7095 1937.31 67.5592 C 1966.89 129.868 1962.74 202.977 1948.06 268.273 C 1942.25 294.123 1929.95 324.966 1921.48 349.697 C 1937.34 334.058 1958.45 309.846 1976.56 298.424 C 2019.5 271.332 2022.35 319.898 2020.17 349.23 C 2013.65 436.923 1971.68 520.995 1918.87 589.287 C 1941.96 579.89 1988.02 571.922 1999.78 601.159 C 2006.28 617.309 1995.45 641.409 1988.73 656.267 C 1965.33 702.809 1932.19 744.504 1891.74 777.411 C 1883.32 784.262 1857.31 802.914 1852.54 807.926 C 1845.94 816.722 1840.6 825.64 1833.79 834.232 C 1814.92 858.045 1787.89 864.939 1762.7 878.336 C 1789.88 881.119 1861.06 869.567 1857.84 917.199 C 1856.47 937.505 1833.22 965.827 1817.3 977.512 C 1775.92 1009.03 1720.03 1022.75 1669.47 1030.96 C 1659.76 1032.53 1643.29 1035.94 1634.07 1036.34 C 1650.15 1053.25 1689.46 1093.37 1659.15 1116.94 C 1620.74 1146.82 1550.38 1151.92 1505.01 1136.13 C 1506.96 1151.3 1508.54 1164.45 1505.67 1179.69 C 1499.41 1212.96 1474.91 1237.11 1440.46 1238.89 C 1388.43 1241.56 1344.74 1196.95 1317.88 1156.97 C 1314.06 1168.54 1310.89 1178.53 1304.7 1188.65 C 1287.36 1216.99 1251.07 1232.53 1225.73 1203.48 C 1222.88 1200.21 1218.21 1195.9 1215.04 1192.62 L 1215.2 1194.01 C 1216.52 1206.06 1215.63 1218.38 1216.78 1230.15 C 1218.08 1243.36 1220.04 1258.76 1222.76 1271.75 C 1250.51 1404.19 1339.32 1535.36 1465.44 1591.01 C 1480.49 1597.65 1502.59 1599.03 1515.62 1608.69 C 1544.82 1630.35 1539.35 1672.46 1517.8 1697.51 C 1495.3 1723.67 1460.87 1739.03 1426.77 1742.39 C 1409.09 1743.95 1376.19 1743.17 1359.9 1736.45 C 1433.51 1857 1310.6 1929.68 1214.05 1849.4 C 1210.44 1846.4 1205.57 1841.44 1202.16 1838.88 C 1202.07 1864.6 1191.71 1889.21 1173.39 1907.26 C 1162.36 1918.26 1148.51 1924.72 1133.15 1927.01 C 1133.54 1979.22 1102.53 2031.35 1050.9 2044.13 C 1048.15 2044.81 1039.71 2046.8 1037.93 2048 L 1016.23 2048 C 1014.13 2046.91 1015.22 2047.37 1013.43 2046.76 C 993.228 2039.9 980.387 2036.61 963.67 2023.09 C 960.996 2020.59 958.377 2018.03 955.816 2015.41 C 932.815 1991.68 920.043 1959.87 920.246 1926.83 C 878.331 1921.92 853.058 1877.92 851.669 1838.94 C 850.558 1838.43 849.988 1838.55 848.953 1839.4 C 847.145 1840.89 845.689 1843.34 844 1845.06 C 840.188 1848.94 835.735 1852.29 831.345 1855.48 C 813.424 1868.5 792.555 1878.69 770.603 1882.4 C 747.916 1886.24 722.631 1882.84 703.656 1869.14 C 670.23 1844.99 666.17 1802.44 680.138 1766.04 C 682.47 1759.96 693.75 1740.63 693.061 1736.42 C 642.58 1750.22 585.794 1744.83 545.615 1707.22 C 518.801 1682.12 505.618 1637.03 538.319 1609.62 C 552.251 1598.59 573.922 1598.54 589.267 1591.68 C 726.258 1530.49 819.108 1383.21 836.988 1236.88 C 838.891 1221.3 838.022 1205.32 837.869 1189.77 C 797.57 1248.48 751.247 1207.93 734.953 1157.41 L 725.89 1170.16 C 703.919 1200.73 670.947 1232.3 632.207 1238.36 C 611.77 1241.35 590.989 1236.02 574.511 1223.57 C 553.008 1207.42 545.972 1184.57 546.355 1158.51 C 546.43 1153.44 548.355 1141.15 547.163 1137.19 C 534.389 1140.46 520.948 1143.96 507.461 1144.67 C 471.126 1146.58 421.72 1139.3 392.951 1115.82 C 366.972 1094.62 405.146 1052.53 420.909 1036.18 C 416.782 1034.72 402.035 1033.08 396.759 1032.38 C 327.39 1023.12 234.173 1001.82 200.968 932.547 C 177.494 883.577 239.116 875.363 272.086 878.186 C 276.062 878.526 287.919 878.905 291.351 877.247 C 250.855 861.521 224.982 847.331 202.218 808.4 C 194.42 800.967 183.723 794.402 175.149 787.644 C 127.364 749.975 85.0609 701.683 60.8435 645.416 C 55.0019 631.844 49.5546 612.72 56.0703 598.451 C 68.0581 572.199 114.859 580.09 135.535 590.357 C 88.4697 531.88 44.5274 442.821 34.7655 367.755 C 32.8998 350.883 29.6219 310.813 41.2579 298.315 C 65.114 272.691 114.667 330.946 132.354 347.383 z"/>
<path transform="translate(0,0)" fill="rgb(253,155,63)" d="M 1174.38 633.461 C 1198.68 627.754 1226.11 624.083 1251.02 618.41 C 1349.17 596.056 1429.09 568.204 1516.39 518.184 C 1663.11 436.212 1771.59 300.576 1818.02 138.894 C 1828.35 102.908 1835.21 68.1133 1842.12 31.3469 C 1843.76 25.2905 1849 12.204 1855.51 10.194 C 1892.09 -1.10129 1925.04 41.7095 1937.31 67.5592 C 1966.89 129.868 1962.74 202.977 1948.06 268.273 C 1942.25 294.123 1929.95 324.966 1921.48 349.697 C 1937.34 334.058 1958.45 309.846 1976.56 298.424 C 2019.5 271.332 2022.35 319.898 2020.17 349.23 C 2013.65 436.923 1971.68 520.995 1918.87 589.287 C 1941.96 579.89 1988.02 571.922 1999.78 601.159 C 2006.28 617.309 1995.45 641.409 1988.73 656.267 C 1965.33 702.809 1932.19 744.504 1891.74 777.411 C 1883.32 784.262 1857.31 802.914 1852.54 807.926 C 1845.94 816.722 1840.6 825.64 1833.79 834.232 C 1814.92 858.045 1787.89 864.939 1762.7 878.336 C 1789.88 881.119 1861.06 869.567 1857.84 917.199 C 1856.47 937.505 1833.22 965.827 1817.3 977.512 C 1775.92 1009.03 1720.03 1022.75 1669.47 1030.96 C 1659.76 1032.53 1643.29 1035.94 1634.07 1036.34 C 1650.15 1053.25 1689.46 1093.37 1659.15 1116.94 C 1620.74 1146.82 1550.38 1151.92 1505.01 1136.13 C 1506.96 1151.3 1508.54 1164.45 1505.67 1179.69 C 1499.41 1212.96 1474.91 1237.11 1440.46 1238.89 C 1388.43 1241.56 1344.74 1196.95 1317.88 1156.97 C 1314.06 1168.54 1310.89 1178.53 1304.7 1188.65 C 1287.36 1216.99 1251.07 1232.53 1225.73 1203.48 C 1222.88 1200.21 1218.21 1195.9 1215.04 1192.62 L 1215.2 1194.01 C 1216.52 1206.06 1215.63 1218.38 1216.78 1230.15 C 1218.08 1243.36 1220.04 1258.76 1222.76 1271.75 C 1250.51 1404.19 1339.32 1535.36 1465.44 1591.01 C 1480.49 1597.65 1502.59 1599.03 1515.62 1608.69 C 1544.82 1630.35 1539.35 1672.46 1517.8 1697.51 C 1495.3 1723.67 1460.87 1739.03 1426.77 1742.39 C 1409.09 1743.95 1376.19 1743.17 1359.9 1736.45 C 1433.51 1857 1310.6 1929.68 1214.05 1849.4 C 1210.44 1846.4 1205.57 1841.44 1202.16 1838.88 C 1202.07 1864.6 1191.71 1889.21 1173.39 1907.26 C 1162.36 1918.26 1148.51 1924.72 1133.15 1927.01 C 1106.95 1920.43 1097.66 1895.3 1087.87 1871.72 C 1059.07 1802.31 1040.27 1726.52 1027.63 1652.53 C 1025.69 1641.17 1026.93 1619.24 1026.93 1607.01 L 1026.95 1536.86 L 1026.98 1307.69 L 1026.97 1046.49 C 1026.94 983.903 1021.39 839.528 1050.38 787.437 C 1089.28 810.83 1103.55 857.859 1115.3 899.547 C 1117.31 898.75 1119.32 897.941 1121.32 897.12 C 1129.31 858.706 1132.31 820.237 1143.29 780.976 C 1148.18 787.939 1153.71 798.747 1158.37 806.37 C 1179.75 841.344 1194.32 873.559 1207.05 912.639 L 1207.7 912.423 C 1208.29 905.12 1204.83 876.967 1204.34 867.654 C 1200.19 788.735 1186.45 711.432 1174.38 633.461 z"/>
<path transform="translate(0,0)" fill="rgb(241,63,59)" d="M 1921.48 349.697 C 1937.34 334.058 1958.45 309.846 1976.56 298.424 C 2019.5 271.332 2022.35 319.898 2020.17 349.23 C 2013.65 436.923 1971.68 520.995 1918.87 589.287 C 1941.96 579.89 1988.02 571.922 1999.78 601.159 C 2006.28 617.309 1995.45 641.409 1988.73 656.267 C 1965.33 702.809 1932.19 744.504 1891.74 777.411 C 1883.32 784.262 1857.31 802.914 1852.54 807.926 C 1848.32 798.417 1855.05 779.559 1847.9 769.02 C 1838.3 754.873 1819.99 752.478 1804.3 751.746 C 1780.74 750.647 1757.47 751.27 1733.93 750.835 C 1711.83 750.187 1688.64 750.322 1667.4 743.968 C 1695.55 738.328 1716.2 740.219 1727.82 709.829 C 1720.49 691.161 1701.8 679.592 1697.09 663.199 C 1689.39 636.403 1727.25 607.498 1743.55 591.459 C 1759.65 575.607 1775.43 561.01 1790.19 544.686 C 1826.7 504.49 1859.07 460.726 1886.83 414.053 C 1898.78 393.594 1908.87 371.422 1921.48 349.697 z"/>
<path transform="translate(0,0)" fill="rgb(241,63,59)" d="M 1202.16 1838.88 C 1201.55 1834.19 1184.12 1801.35 1180.88 1794.69 C 1176.76 1786.14 1172.91 1777.45 1169.35 1768.64 C 1157.86 1740.34 1148.08 1710.24 1140.09 1680.78 C 1130.69 1646.15 1103.78 1520.43 1120.49 1492.9 C 1124.11 1486.94 1129.65 1482.72 1136.52 1481.27 C 1148.39 1478.76 1161.11 1485.11 1168.72 1494.01 C 1182.35 1509.93 1191.18 1534.42 1201.84 1552.85 C 1242.76 1623.6 1289.61 1692.1 1359.9 1736.45 C 1433.51 1857 1310.6 1929.68 1214.05 1849.4 C 1210.44 1846.4 1205.57 1841.44 1202.16 1838.88 z"/>
<path transform="translate(0,0)" fill="rgb(241,63,59)" d="M 1634.07 1036.34 C 1617.75 1019.75 1592.43 1001.54 1572.15 986.458 C 1544.97 966.235 1504.28 936.544 1521.6 895.979 C 1524.51 889.168 1532.43 887.048 1539.49 886.971 C 1561.89 886.725 1584.4 890.582 1606.89 891.76 C 1659.19 894.254 1711.59 889.739 1762.7 878.336 C 1789.88 881.119 1861.06 869.567 1857.84 917.199 C 1856.47 937.505 1833.22 965.827 1817.3 977.512 C 1775.92 1009.03 1720.03 1022.75 1669.47 1030.96 C 1659.76 1032.53 1643.29 1035.94 1634.07 1036.34 z"/>
<path transform="translate(0,0)" fill="rgb(241,63,59)" d="M 1317.88 1156.97 C 1320.81 1141.13 1322.98 1125.15 1324.38 1109.1 C 1325.59 1093.58 1325.88 1067.19 1329.99 1053.53 C 1341.1 1016.58 1391.33 1064.64 1403.92 1073.86 C 1431.79 1094.25 1472.19 1127.83 1505.01 1136.13 C 1506.96 1151.3 1508.54 1164.45 1505.67 1179.69 C 1499.41 1212.96 1474.91 1237.11 1440.46 1238.89 C 1388.43 1241.56 1344.74 1196.95 1317.88 1156.97 z"/>
<path transform="translate(0,0)" fill="rgb(216,108,31)" d="M 1115.3 899.547 C 1117.31 898.75 1119.32 897.941 1121.32 897.12 C 1121.01 904.132 1120.79 910.783 1119.96 917.762 C 1118.87 912.93 1117.06 903.83 1115.3 899.547 z"/>
<path transform="translate(0,0)" fill="rgb(241,63,59)" d="M 135.535 590.357 C 88.4697 531.88 44.5274 442.821 34.7655 367.755 C 32.8998 350.883 29.6219 310.813 41.2579 298.315 C 65.114 272.691 114.667 330.946 132.354 347.383 C 134.614 354.778 142.007 365.115 145.682 372.688 C 178.516 440.342 224.33 505.532 277.44 559.046 C 287.757 569.484 298.278 579.719 308.997 589.743 C 330.512 609.859 369.952 639.374 352.767 671.448 C 344.823 686.273 324.114 698.875 327.806 717.286 C 333.07 736.167 372.746 741.372 388.716 745.474 C 355.676 753.166 312.995 749.202 278.246 751.001 C 258.548 752.02 218.671 748.205 205.297 768.575 C 199.34 777.648 204.223 796.625 202.218 808.4 C 194.42 800.967 183.723 794.402 175.149 787.644 C 127.364 749.975 85.0609 701.683 60.8435 645.416 C 55.0019 631.844 49.5546 612.72 56.0703 598.451 C 68.0581 572.199 114.859 580.09 135.535 590.357 z"/>
<path transform="translate(0,0)" fill="rgb(241,63,59)" d="M 693.061 1736.42 C 698.187 1735.68 713.354 1723.47 717.821 1719.97 C 780.064 1671.15 826.157 1602.46 862.473 1532.95 C 872.19 1515.56 879.886 1491.1 899.859 1483.4 C 912.38 1477.63 935.567 1483.18 937.417 1499.27 C 941.042 1530.76 934.84 1563.32 930.579 1594.34 C 923.183 1648.17 909.274 1699.83 890.914 1750.94 C 884.069 1769.99 873.46 1789.54 865.294 1808.12 C 863.129 1813.05 850.783 1835.05 851.669 1838.94 C 850.558 1838.43 849.988 1838.55 848.953 1839.4 C 847.145 1840.89 845.689 1843.34 844 1845.06 C 840.188 1848.94 835.735 1852.29 831.345 1855.48 C 813.424 1868.5 792.555 1878.69 770.603 1882.4 C 747.916 1886.24 722.631 1882.84 703.656 1869.14 C 670.23 1844.99 666.17 1802.44 680.138 1766.04 C 682.47 1759.96 693.75 1740.63 693.061 1736.42 z"/>
<path transform="translate(0,0)" fill="rgb(241,63,59)" d="M 291.351 877.247 C 325.648 890.475 416.266 894.619 453.933 891.402 C 473.549 889.726 497.803 884.965 517.893 886.243 C 523.767 886.617 529.331 892.704 533.325 896.797 C 544.4 933.623 520.525 956.713 494.152 977.604 C 481.972 987.252 426.316 1026.39 420.909 1036.18 C 416.782 1034.72 402.035 1033.08 396.759 1032.38 C 327.39 1023.12 234.173 1001.82 200.968 932.547 C 177.494 883.577 239.116 875.363 272.086 878.186 C 276.062 878.526 287.919 878.905 291.351 877.247 z"/>
<path transform="translate(0,0)" fill="rgb(254,203,4)" d="M 1243.14 417.218 C 1238.41 412.385 1219.22 409.15 1206.71 399.167 C 1193.95 389.01 1185.75 374.196 1183.91 357.989 C 1182.17 341.384 1188.74 322.935 1198.94 310.306 C 1219.37 285.017 1251.86 279.468 1282.58 281.214 C 1290.96 281.69 1304.75 283.635 1312.65 282.428 C 1358.89 291.702 1409.71 304.348 1439.8 344.83 C 1450.4 359.096 1458.74 385.155 1456.37 403.312 C 1452.44 424.414 1417.09 398.815 1405.6 395.952 C 1366.18 386.124 1324.26 393.032 1285.56 403.186 C 1271.33 406.944 1257.14 412.794 1243.14 417.218 z"/>
<path transform="translate(0,0)" fill="rgb(241,63,59)" d="M 547.163 1137.19 C 582.832 1127.59 628.992 1087.57 658.856 1066.26 C 677.021 1053.3 701.895 1024.98 723.314 1048.89 C 727.412 1060.7 726.99 1089.99 728.669 1104.14 C 730.733 1121.51 733.442 1140.09 734.953 1157.41 L 725.89 1170.16 C 703.919 1200.73 670.947 1232.3 632.207 1238.36 C 611.77 1241.35 590.989 1236.02 574.511 1223.57 C 553.008 1207.42 545.972 1184.57 546.355 1158.51 C 546.43 1153.44 548.355 1141.15 547.163 1137.19 z"/>
<path transform="translate(0,0)" fill="rgb(241,63,59)" d="M 920.246 1926.83 C 934.662 1923.78 942.827 1918.49 950.168 1905.22 C 972.299 1865.21 988.125 1818.83 999.773 1774.8 C 1005.96 1751.4 1009.87 1727.82 1016.83 1705.82 C 1015.86 1731.18 1009.58 1758.85 1005.19 1784.1 C 998.992 1821.97 992.507 1859.78 985.738 1897.55 L 971.185 1980.02 C 969.402 1990.48 966.284 2014 963.67 2023.09 C 960.996 2020.59 958.377 2018.03 955.816 2015.41 C 932.815 1991.68 920.043 1959.87 920.246 1926.83 z"/>
</svg>