<svg xmlns="http://www.w3.org/2000/svg" viewBox="0 0 300 185" fill="none">
  <path d="M61.44 36.21c48.93-47.9 128.2-47.9 177.12 0l5.89 5.76a6.04 6.04 0 0 1 0 8.68l-20.15 19.73a3.18 3.18 0 0 1-4.43 0l-8.1-7.93c-34.12-33.4-89.43-33.4-123.55 0l-8.68 8.5a3.18 3.18 0 0 1-4.43 0L54.96 51.22a6.04 6.04 0 0 1 0-8.68l6.48-6.33ZM280.2 76.3l17.94 17.56a6.04 6.04 0 0 1 0 8.68l-80.93 79.22a6.36 6.36 0 0 1-8.86 0l-57.43-56.22a1.59 1.59 0 0 0-2.21 0l-57.42 56.22a6.36 6.36 0 0 1-8.86 0L1.86 102.54a6.04 6.04 0 0 1 0-8.68L19.8 76.3a6.36 6.36 0 0 1 8.86 0l57.43 56.23a1.59 1.59 0 0 0 2.22 0l57.42-56.23a6.36 6.36 0 0 1 8.86 0l57.43 56.23a1.59 1.59 0 0 0 2.21 0L271.34 76.3a6.36 6.36 0 0 1 8.86 0Z" fill="#3B99FC"/>
</svg>
